{"title":"3 D Mist World - WolfMen and Centaurus avi","uid":6554661,"size":648631856,"categoryP":"porn","categoryS":"movie_clips","magnet":"?xt=urn:btih:b55a6d174b6cc2685676106ecc63662bb8e3b82a&amp;dn=3+D+Mist+World+-+WolfMen+and+Centaurus+avi&amp;tr=udp%3A%2F%2Ftracker.openbittorrent.com%3A80&amp;tr=udp%3A%2F%2Fopen.demonii.com%3A1337&amp;tr=udp%3A%2F%2Ftracker.coppersurfer.tk%3A6969&amp;tr=udp%3A%2F%2Fexodus.desync.com%3A6969","seeders":1,"leechers":0,"uploader":"jimevjr","files":2,"time":1311237770,"description":"Complete name : Mist World pt 1.avi\nFormat : AVI\nFormat/Info : Audio Video Interleave\nFile size : 434 MiB\nDuration : 54mn 52s\nOverall bit rate : 1 106 Kbps\nVideo\nID : 0\nFormat : MPEG-4 Visual\nFormat settings, BVOP : 1\nFormat settings, QPel : No\nFormat settings, GMC : No warppoints\nFormat settings, Matrix : Default (H.263)\nMuxing mode : Packed bitstream\nCodec ID : DX50\nCodec ID/Hint : DivX 5\nDuration : 54mn 52s\nBit rate : 969 Kbps\nWidth : 640 pixels\nHeight : 480 pixels\nDisplay aspect ratio : 4:3\nFrame rate : 24.000 fps\nColor space : YUV\nChroma subsampling : 4:2:0\nBit depth : 8 bits\nScan type : Progressive\nCompression mode : Lossy\nBits/(Pixel*Frame) : 0.131\nStream size : 380 MiB (88%)\nWriting library : DivX 6.0.3 Fusion (ThermonuclearFusion) (UTC 2005-10-18)\nAudio\nID : 1\nFormat : MPEG Audio\nFormat version : Version 1\nFormat profile : Layer 3\nCodec ID : 55\nCodec ID/Hint : MP3\nDuration : 54mn 52s\nBit rate mode : Constant\nBit rate : 128 Kbps\nChannel(s) : 2 channels\nSampling rate : 44.1 KHz\nCompression mode : Lossy\nStream size : 50.2 MiB (12%)\nAlignment : Split accross interleaves\nInterleave, duration : 42 ms (1.00 video frame)\n___________________________________________________________\nGeneral\nComplete name : Mist World pt 2.avi\nFormat : AVI\nFormat/Info : Audio Video Interleave\nFile size : 184 MiB\nDuration : 22mn 40s\nOverall bit rate : 1 138 Kbps\nVideo\nID : 0\nFormat : MPEG-4 Visual\nFormat settings, BVOP : 1\nFormat settings, QPel : No\nFormat settings, GMC : No warppoints\nFormat settings, Matrix : Default (H.263)\nMuxing mode : Packed bitstream\nCodec ID : DX50\nCodec ID/Hint : DivX 5\nDuration : 22mn 40s\nBit rate : 1 000 Kbps\nWidth : 640 pixels\nHeight : 480 pixels\nDisplay aspect ratio : 4:3\nFrame rate : 25.000 fps\nColor space : YUV\nChroma subsampling : 4:2:0\nBit depth : 8 bits\nScan type : Progressive\nCompression mode : Lossy\nBits/(Pixel*Frame) : 0.130\nStream size : 162 MiB (88%)\nWriting library : DivX 2376\nAudio\nID : 1\nFormat : MPEG Audio\nFormat version : Version 1\nFormat profile : Layer 3\nCodec ID : 55\nCodec ID/Hint : MP3\nDuration : 22mn 40s\nBit rate mode : Constant\nBit rate : 128 Kbps\nChannel(s) : 2 channels\nSampling rate : 44.1 KHz\nCompression mode : Lossy\nStream size : 20.8 MiB (11%)\nAlignment : Split accross interleaves\nInterleave, duration : 40 ms (1.00 video frame)","torrent":{"xt":"urn:btih:b55a6d174b6cc2685676106ecc63662bb8e3b82a","amp;dn":"3+D+Mist+World+-+WolfMen+and+Centaurus+avi","amp;tr":["udp%3A%2F%2Ftracker.openbittorrent.com%3A80","udp%3A%2F%2Fopen.demonii.com%3A1337","udp%3A%2F%2Ftracker.coppersurfer.tk%3A6969","udp%3A%2F%2Fexodus.desync.com%3A6969"],"infoHash":"b55a6d174b6cc2685676106ecc63662bb8e3b82a","infoHashBuffer":{"type":"Buffer","data":[181,90,109,23,75,108,194,104,86,118,16,110,204,99,102,43,184,227,184,42]},"announce":[],"urlList":[]}}